<svg width="54" height="54" viewBox="0 0 54 54" fill="none" xmlns="http://www.w3.org/2000/svg">
<path d="M18 18L26.9997 26.9997M26.9997 26.9997L35.9997 35.9997M26.9997 26.9997L18 35.9997M26.9997 26.9997L35.9997 18M3 41.4006V12.6006C3 9.24027 3 7.55886 3.65397 6.2754C4.22919 5.14641 5.14641 4.22919 6.2754 3.65397C7.55886 3 9.24027 3 12.6006 3H41.4006C44.7609 3 46.4403 3 47.7237 3.65397C48.8526 4.22919 49.7715 5.14641 50.3466 6.2754C51.0006 7.55886 51.0006 9.23901 51.0006 12.5993V41.3994C51.0006 44.7597 51.0006 46.44 50.3466 47.7234C49.7715 48.8523 48.8526 49.7715 47.7237 50.3466C46.4415 51 44.7645 51 41.4108 51H12.5907C9.23697 51 7.5576 51 6.2754 50.3466C5.14641 49.7715 4.22919 48.8526 3.65397 47.7237C3 46.4403 3 44.7609 3 41.4006Z" stroke="#62FE78" stroke-width="6" stroke-linecap="round" stroke-linejoin="round"/>
</svg>
