<svg width="48" height="52" viewBox="0 0 48 52" fill="none" xmlns="http://www.w3.org/2000/svg">
<path d="M45.6 10.3385H25.4832L21.36 1.42933C21.1597 0.997711 20.8513 0.635081 20.4695 0.382482C20.0878 0.129884 19.648 -0.00259527 19.2 3.85196e-05H2.4C1.76348 3.85196e-05 1.15303 0.272345 0.702944 0.757054C0.252856 1.24176 0 1.89917 0 2.58465V49.1077C0 49.7932 0.252856 50.4506 0.702944 50.9353C1.15303 51.42 1.76348 51.6923 2.4 51.6923H45.6C46.2365 51.6923 46.847 51.42 47.2971 50.9353C47.7471 50.4506 48 49.7932 48 49.1077V12.9231C48 12.2376 47.7471 11.5802 47.2971 11.0955C46.847 10.6108 46.2365 10.3385 45.6 10.3385ZM43.2 46.5231H4.8V5.16926H17.7168L21.852 14.0784C22.0514 14.5081 22.3579 14.8694 22.7374 15.1219C23.1168 15.3743 23.554 15.5079 24 15.5077H43.2V46.5231ZM24 27.3608L28.3032 22.7265C28.7558 22.2557 29.3621 21.9952 29.9914 22.0011C30.6206 22.007 31.2226 22.2788 31.6676 22.758C32.1125 23.2372 32.365 23.8855 32.3704 24.5632C32.3759 25.2408 32.134 25.8937 31.6968 26.3812L27.3936 31.0154L31.6968 35.6496C31.926 35.888 32.1089 36.1732 32.2346 36.4886C32.3604 36.8039 32.4266 37.143 32.4294 37.4862C32.4322 37.8294 32.3714 38.1698 32.2508 38.4874C32.1301 38.805 31.9519 39.0936 31.7265 39.3363C31.5012 39.579 31.2332 39.7709 30.9383 39.9008C30.6433 40.0308 30.3273 40.0962 30.0086 40.0932C29.69 40.0902 29.375 40.0189 29.0822 39.8835C28.7894 39.748 28.5246 39.5511 28.3032 39.3043L24 34.67L19.6968 39.3043C19.2442 39.7751 18.6379 40.0356 18.0086 40.0297C17.3794 40.0238 16.7774 39.752 16.3324 39.2728C15.8875 38.7936 15.6351 38.1453 15.6296 37.4676C15.6241 36.7899 15.866 36.1371 16.3032 35.6496L20.6064 31.0154L16.3032 26.3812C15.866 25.8937 15.6241 25.2408 15.6296 24.5632C15.6351 23.8855 15.8875 23.2372 16.3324 22.758C16.7774 22.2788 17.3794 22.007 18.0086 22.0011C18.6379 21.9952 19.2442 22.2557 19.6968 22.7265L24 27.3608Z" fill="#F5F3F7"/>
</svg>
