<?xml version="1.0" encoding="UTF-8"?><svg id="Capa_2" xmlns="http://www.w3.org/2000/svg" viewBox="0 0 309.92 281.13"><defs><style>.cls-1{fill:#fff;}.cls-2{fill:#e42575;}.cls-3{fill:#1d1d1b;}</style></defs><path class="cls-2" d="m69.52,134.29h-32.45v63.79c0,12.12,9.83,21.95,21.96,21.95h91.08v-21.91h-80.59v-63.83h0Z"/><path d="m150.36,220.28H59.03c-12.25,0-22.21-9.96-22.21-22.2v-64.04h32.95v63.83h80.59v22.41Zm-113.04-85.74v63.54c0,11.97,9.74,21.7,21.71,21.7h90.83v-21.41h-80.59v-63.83h-31.95Z"/><path class="cls-2" d="m274.51,124.18h-32.45v73.94h-80.59v21.91h91.08c12.13,0,21.96-9.83,21.96-21.95v-73.9h0Z"/><path d="m252.55,220.28h-91.33v-22.41h80.59v-73.94h32.95v74.15c0,12.24-9.96,22.2-22.21,22.2Zm-90.83-.5h90.83c11.97,0,21.71-9.73,21.71-21.7v-73.65h-31.95v73.94h-80.59v21.41Z"/><path class="cls-2" d="m252.55.25h-91.08v20.18h80.59v55.46h32.45V22.21c0-12.13-9.83-21.96-21.96-21.96h0Z"/><path d="m274.76,76.14h-32.95V20.68h-80.59V0h91.33c12.25,0,22.21,9.96,22.21,22.21v53.93Zm-32.45-.5h31.95V22.21c0-11.97-9.74-21.71-21.71-21.71h-90.83v19.68h80.59v55.46Z"/><path class="cls-2" d="m150.11.25H59.03c-12.13,0-21.96,9.83-21.96,21.96v63.78h32.45V20.43h80.59V.25h0Z"/><path d="m69.77,86.24h-32.95V22.21C36.82,9.96,46.78,0,59.03,0h91.33v20.68h-80.59v65.56Zm-32.45-.5h31.95V20.18h80.59V.5H59.03c-11.97,0-21.71,9.74-21.71,21.71v63.53Z"/><polygon class="cls-1" points="309.67 94.22 309.67 110.48 195.6 110.48 195.6 110.47 180.01 81.9 142.48 146.9 131.4 166.08 118.28 148.24 96.48 118.61 .25 118.61 .25 102.35 109.7 102.35 109.71 102.36 129.36 129.06 168.62 61.04 180.5 40.46 191.89 61.32 209.84 94.22 309.67 94.22"/><path d="m131.43,166.54l-35.07-47.68H0v-16.76h109.8l.07.07,19.46,26.43,51.17-88.65,11.6,21.25,17.88,32.77h99.93v16.76h-114.57v-.2l-15.35-28.12-48.58,84.13ZM.5,118.36h96.11l.07.1,34.69,47.16,48.64-84.23,15.74,28.84h113.67v-15.76h-99.73l-.07-.13-29.13-53.37-51.11,88.55-19.81-26.92H.5v15.76Z"/><polygon class="cls-1" points="109.71 102.35 109.71 102.36 109.7 102.35 109.71 102.35"/><polygon points="109.96 102.96 109.11 102.11 109.95 102.1 109.96 102.96"/><path class="cls-1" d="m52.27,260.14c0,1.27-.16,2.4-.47,3.4-.31,1-.74,1.88-1.28,2.65-.53.76-1.14,1.4-1.84,1.95-.7.54-1.43.99-2.2,1.35-.76.34-1.53.59-2.31.75-.77.16-1.5.24-2.18.24l11.61,10.03h-8.6l-11.59-10.03h-4v-5.56h12.57c.7-.06,1.33-.2,1.9-.43.58-.24,1.08-.56,1.5-.96.43-.4.76-.88.98-1.43.23-.57.34-1.22.34-1.95v-3.51c0-.31-.04-.55-.13-.71-.07-.17-.17-.29-.3-.36-.11-.09-.24-.14-.38-.15-.13-.01-.25-.02-.36-.02h-18.35v25.1h-5.56v-27.86c0-.38.07-.75.21-1.09.14-.34.33-.64.58-.9.26-.26.56-.46.9-.6s.71-.21,1.11-.21h21.1c1.24,0,2.29.23,3.14.68.86.44,1.55,1,2.07,1.69.54.67.93,1.4,1.15,2.18.24.78.36,1.52.36,2.2v3.55Zm29.57,4.9c0,.77-.14,1.6-.41,2.5-.27.88-.71,1.71-1.33,2.48-.6.76-1.39,1.39-2.37,1.9-.97.51-2.15.77-3.55.77h-10.03v-5.28h10.03c.76,0,1.34-.23,1.75-.68.41-.47.62-1.05.62-1.73,0-.73-.24-1.3-.71-1.71-.46-.41-1.01-.62-1.67-.62h-10.03c-.76,0-1.34.24-1.75.71-.41.46-.62,1.03-.62,1.71v7.76c0,.74.23,1.32.68,1.73.47.41,1.05.62,1.73.62h9.99v5.3h-10.03c-.77,0-1.6-.14-2.5-.41-.88-.27-1.71-.71-2.48-1.3-.76-.61-1.39-1.4-1.9-2.37-.51-.98-.77-2.17-.77-3.57v-7.8c0-.77.14-1.6.41-2.48.27-.9.71-1.72,1.3-2.48.61-.77,1.4-1.41,2.37-1.92.98-.51,2.17-.77,3.57-.77h10.03c.77,0,1.6.14,2.48.41.9.27,1.72.71,2.48,1.33.77.6,1.41,1.39,1.92,2.37.51.97.77,2.15.77,3.55Zm24.76-2.1h-9.71v17.55h-5.62v-17.55h-7.23v-5.56h7.23v-7.55h5.62v7.55h9.71v5.56Zm23.75,0h-12.51c-.76,0-1.33.19-1.71.58-.38.37-.58.92-.58,1.65v15.33h-5.56v-15.33c0-.96.12-1.81.36-2.57.24-.76.56-1.42.96-1.99.41-.58.88-1.08,1.41-1.48.53-.41,1.08-.75,1.65-1,.58-.26,1.17-.44,1.75-.56.6-.13,1.15-.19,1.67-.19h12.55v5.56Zm28.74,9.75c0,.95-.12,1.82-.36,2.59-.24.76-.56,1.43-.96,2.01-.4.57-.86,1.06-1.39,1.48-.53.4-1.08.73-1.67.98-.57.26-1.15.45-1.75.58-.58.11-1.14.17-1.67.17h-10.03c-.77,0-1.61-.14-2.52-.41-.91-.27-1.76-.71-2.54-1.33-.77-.63-1.42-1.43-1.95-2.42-.51-1-.77-2.22-.77-3.66v-7.53c0-1.43.26-2.63.77-3.61.53-1,1.18-1.8,1.95-2.42.78-.63,1.63-1.08,2.54-1.35.91-.27,1.75-.41,2.52-.41h10.03c1.43,0,2.64.26,3.63.77,1,.51,1.8,1.16,2.42,1.95.61.77,1.05,1.61,1.33,2.52.29.91.43,1.76.43,2.54v7.53Zm-5.56-7.48c0-.77-.19-1.34-.58-1.71-.38-.37-.94-.56-1.67-.56h-9.99c-.74,0-1.3.19-1.69.58-.38.37-.58.92-.58,1.65v7.53c0,.73.19,1.28.58,1.67.38.38.95.58,1.69.58h9.99c.76,0,1.32-.19,1.69-.58.37-.38.56-.94.56-1.67v-7.48Zm50.08-15.37l-5.13,28.74c-.11.57-.37,1.06-.77,1.48-.4.41-.88.68-1.45.79-.58.1-1.14.04-1.67-.19-.51-.23-.92-.58-1.22-1.07l-10.18-16.72-10.2,16.72c-.24.41-.58.73-1,.96-.41.23-.86.34-1.35.34-.67,0-1.26-.21-1.77-.64-.51-.43-.83-.98-.94-1.67l-5.17-28.74h5.64l3.68,20.25,8.77-13.98c.24-.41.57-.73.98-.96.43-.23.88-.34,1.37-.34s.93.11,1.35.34.76.55,1.03.96l8.72,13.98,3.68-20.25h5.65Zm27.2,23.01c0,.77-.14,1.6-.41,2.5-.27.88-.71,1.71-1.32,2.48-.6.76-1.39,1.39-2.37,1.9-.97.51-2.15.77-3.55.77h-10.03c-.77,0-1.6-.14-2.5-.41-.88-.27-1.71-.71-2.48-1.3-.76-.61-1.39-1.4-1.9-2.37-.51-.98-.77-2.17-.77-3.57,0-.77.14-1.6.41-2.5.27-.9.71-1.72,1.3-2.48.61-.77,1.4-1.41,2.37-1.92.98-.51,2.17-.77,3.57-.77h10.03v5.3h-10.03c-.76,0-1.34.24-1.75.71-.41.46-.62,1.03-.62,1.71,0,.73.24,1.3.7,1.71.49.4,1.06.6,1.71.6h9.99c.76,0,1.34-.23,1.75-.68.41-.46.62-1.03.62-1.71v-7.76c0-.73-.23-1.3-.68-1.73-.44-.43-1-.64-1.69-.64h-12.21v-5.28h12.21c.77,0,1.6.14,2.48.41.9.27,1.72.71,2.48,1.33.77.6,1.41,1.39,1.92,2.37.51.97.77,2.15.77,3.55v7.8Zm32.33-15.46c-.63,1.95-1.36,3.88-2.2,5.77-.84,1.9-1.81,3.71-2.91,5.43-1.08,1.71-2.3,3.3-3.66,4.77-1.34,1.45-2.83,2.72-4.47,3.78-1.63,1.05-3.4,1.89-5.32,2.5-1.91.6-3.98.9-6.22.9-.38,0-.75-.07-1.09-.21-.34-.14-.64-.33-.9-.58-.26-.26-.46-.55-.6-.88-.14-.34-.22-.71-.22-1.09v-20.4h5.56v17.38c1.35,0,2.65-.29,3.89-.88,1.26-.58,2.44-1.35,3.55-2.31,1.11-.97,2.14-2.07,3.08-3.29.95-1.23,1.8-2.48,2.54-3.76.74-1.3,1.37-2.57,1.88-3.81.53-1.24.92-2.35,1.18-3.34h5.9Zm26.88,7.65c0,.77-.14,1.6-.41,2.5-.27.88-.71,1.71-1.32,2.48-.6.76-1.39,1.39-2.37,1.9-.97.51-2.15.77-3.55.77h-10.03v-5.28h10.03c.76,0,1.34-.23,1.75-.68.41-.47.62-1.05.62-1.73,0-.73-.24-1.3-.71-1.71-.46-.41-1.01-.62-1.67-.62h-10.03c-.76,0-1.34.24-1.75.71-.41.46-.62,1.03-.62,1.71v7.76c0,.74.23,1.32.68,1.73.47.41,1.05.62,1.73.62h9.99v5.3h-10.03c-.77,0-1.6-.14-2.5-.41-.88-.27-1.71-.71-2.48-1.3-.76-.61-1.39-1.4-1.9-2.37-.51-.98-.77-2.17-.77-3.57v-7.8c0-.77.14-1.6.41-2.48.27-.9.71-1.72,1.3-2.48.61-.77,1.4-1.41,2.37-1.92.98-.51,2.17-.77,3.57-.77h10.03c.77,0,1.6.14,2.48.41.9.27,1.72.71,2.48,1.33.77.6,1.41,1.39,1.92,2.37.51.97.77,2.15.77,3.55Z"/><path class="cls-3" d="m195.72,281.13c-.43,0-.85-.09-1.24-.26-.56-.25-1.01-.64-1.33-1.17l-9.96-16.37-9.99,16.37c-.26.45-.63.8-1.1,1.05-.45.25-.94.37-1.46.37-.73,0-1.38-.24-1.94-.7-.56-.47-.9-1.08-1.03-1.82l-5.23-29.03h6.15l3.6,19.82,8.42-13.44c.26-.45.62-.8,1.07-1.05.93-.5,2.06-.5,2.96,0,.45.25.82.6,1.11,1.04l8.38,13.44,3.6-19.82h6.15l-5.19,29.03c-.12.62-.4,1.16-.84,1.61-.43.45-.96.74-1.58.86-.19.03-.39.05-.57.05Zm-12.54-18.76l10.39,17.07c.27.44.64.76,1.11.97.48.21.98.27,1.52.17.51-.1.96-.34,1.32-.72.36-.38.6-.83.7-1.35l5.08-28.44h-5.14l-3.76,20.68-9.07-14.53c-.25-.37-.56-.67-.93-.88-.75-.42-1.7-.41-2.48,0-.37.2-.67.49-.89.87l-9.11,14.54-3.76-20.68h-5.14l5.12,28.44c.11.63.38,1.13.85,1.52.47.39,1,.58,1.62.58.44,0,.85-.1,1.23-.31.39-.21.69-.49.91-.87l10.42-17.07Zm55.17,18.41c-.42,0-.82-.08-1.19-.23-.37-.15-.7-.36-.97-.63-.28-.28-.5-.6-.66-.96-.16-.37-.24-.77-.24-1.19v-20.65h6.06v17.38c1.22-.03,2.41-.32,3.54-.85,1.23-.57,2.4-1.33,3.49-2.27,1.09-.95,2.12-2.05,3.04-3.26.95-1.22,1.8-2.47,2.52-3.74.73-1.27,1.36-2.54,1.87-3.78.52-1.23.91-2.34,1.16-3.3l.05-.19h6.44l-.1.33c-.63,1.96-1.38,3.91-2.21,5.8-.84,1.89-1.82,3.73-2.93,5.46-1.09,1.71-2.33,3.33-3.68,4.8-1.35,1.46-2.87,2.75-4.52,3.82-1.63,1.06-3.45,1.91-5.38,2.53-1.93.6-4.05.91-6.3.91Zm-2.55-23.16v20.15c0,.35.07.69.2.99.13.3.31.56.54.8.23.22.5.39.82.52.31.13.64.19,1,.19,2.2,0,4.27-.3,6.15-.89,1.9-.6,3.67-1.44,5.26-2.47,1.61-1.05,3.1-2.31,4.42-3.74,1.34-1.45,2.56-3.04,3.63-4.73,1.09-1.72,2.06-3.53,2.89-5.4.78-1.77,1.49-3.59,2.09-5.42h-5.37c-.26.94-.64,2.01-1.14,3.18-.52,1.25-1.16,2.54-1.9,3.83-.74,1.28-1.6,2.56-2.56,3.79-.95,1.24-2,2.36-3.11,3.33-1.13.97-2.34,1.76-3.61,2.35-1.27.6-2.61.9-4,.9h-.25v-17.38h-5.06Zm46.81,23.11h-10.28c-.79,0-1.66-.14-2.57-.42-.91-.28-1.77-.73-2.56-1.35-.78-.63-1.44-1.46-1.97-2.45-.53-1.02-.8-2.26-.8-3.69v-7.8c0-.79.14-1.65.42-2.55.28-.92.73-1.78,1.35-2.56.63-.79,1.46-1.46,2.45-1.99,1.01-.53,2.26-.8,3.69-.8h10.03c.79,0,1.65.14,2.55.42.92.28,1.79.74,2.57,1.37.79.62,1.46,1.44,1.99,2.45.53,1,.8,2.24.8,3.67,0,.79-.14,1.66-.42,2.57-.28.91-.74,1.77-1.37,2.56-.62.78-1.44,1.44-2.45,1.97-1,.53-2.23.8-3.66.8h-10.28v-5.78h10.28c.69,0,1.2-.2,1.57-.6.37-.43.56-.94.56-1.56,0-.66-.2-1.16-.62-1.52-.41-.38-.91-.56-1.5-.56h-10.03c-.69,0-1.2.2-1.57.62-.38.41-.56.92-.56,1.55v7.76c0,.67.2,1.18.6,1.55.42.37.94.56,1.56.56h10.24v5.8Zm-10.28-23.11c-1.35,0-2.51.25-3.46.74-.93.49-1.7,1.12-2.29,1.86-.58.73-1,1.54-1.26,2.4-.26.86-.4,1.67-.4,2.41v7.8c0,1.35.25,2.51.74,3.46.5.93,1.12,1.71,1.84,2.29.74.58,1.55,1,2.4,1.26.87.26,1.69.4,2.43.4h9.78v-4.8h-9.74c-.74,0-1.38-.23-1.9-.68-.51-.46-.77-1.11-.77-1.92v-7.76c0-.75.23-1.38.68-1.88.46-.52,1.11-.79,1.94-.79h10.03c.72,0,1.33.23,1.84.68.52.46.79,1.1.79,1.9,0,.74-.23,1.38-.68,1.9-.46.51-1.12.77-1.94.77h-9.78v4.78h9.78c1.35,0,2.5-.25,3.43-.74.95-.5,1.72-1.11,2.29-1.84.59-.74,1.02-1.55,1.28-2.4.26-.87.4-1.69.4-2.43,0-1.35-.25-2.5-.74-3.43-.49-.95-1.12-1.72-1.86-2.29-.73-.59-1.54-1.02-2.4-1.28-.85-.26-1.66-.4-2.41-.4h-10.03Zm-49.18,23.11h-10.03c-.79,0-1.65-.14-2.57-.42-.91-.28-1.77-.73-2.56-1.35-.78-.63-1.45-1.46-1.97-2.45-.53-1.02-.8-2.26-.8-3.69,0-.79.14-1.66.42-2.57.28-.92.73-1.78,1.35-2.56.63-.79,1.46-1.46,2.45-1.99,1.02-.53,2.26-.8,3.69-.8h10.28v5.8h-10.28c-.69,0-1.2.2-1.56.62-.38.41-.56.92-.56,1.54,0,.66.2,1.16.62,1.52.44.36.94.54,1.55.54h9.99c.69,0,1.2-.2,1.57-.6.37-.41.55-.92.55-1.54v-7.76c0-.66-.2-1.17-.61-1.55-.4-.39-.89-.57-1.52-.57h-12.46v-5.78h12.46c.79,0,1.65.14,2.55.42.92.28,1.79.74,2.56,1.37.79.62,1.46,1.44,1.99,2.45.53,1,.8,2.24.8,3.67v7.8c0,.79-.14,1.66-.42,2.57-.28.91-.74,1.77-1.37,2.56-.62.78-1.44,1.44-2.45,1.97-1,.53-2.23.8-3.67.8Zm-10.03-15.33c-1.35,0-2.51.25-3.46.74-.93.49-1.7,1.12-2.29,1.86-.58.73-1,1.54-1.26,2.4-.26.87-.4,1.69-.4,2.43,0,1.35.25,2.51.74,3.46.49.93,1.11,1.71,1.84,2.29.74.58,1.55,1,2.4,1.26.87.26,1.69.4,2.43.4h10.03c1.35,0,2.5-.25,3.43-.74.95-.5,1.72-1.12,2.29-1.84.59-.74,1.02-1.55,1.28-2.4.26-.87.4-1.69.4-2.43v-7.8c0-1.35-.25-2.5-.74-3.43-.49-.95-1.12-1.72-1.86-2.29-.73-.59-1.54-1.02-2.4-1.28-.85-.26-1.66-.4-2.41-.4h-11.96v4.78h11.96c.75,0,1.37.24,1.86.71.5.47.76,1.12.76,1.91v7.76c0,.75-.23,1.38-.68,1.88-.46.51-1.11.77-1.94.77h-9.99c-.71,0-1.34-.22-1.87-.66-.53-.47-.79-1.11-.79-1.9,0-.75.23-1.38.68-1.88.46-.52,1.11-.79,1.94-.79h9.78v-4.8h-9.78Zm-61.84,15.33h-10.03c-.79,0-1.66-.14-2.59-.42-.94-.28-1.82-.74-2.63-1.37-.79-.65-1.47-1.49-2.01-2.5-.53-1.03-.8-2.3-.8-3.77v-7.53c0-1.46.27-2.71.8-3.73.54-1.02,1.22-1.86,2.01-2.5.81-.64,1.69-1.11,2.63-1.39.93-.28,1.8-.42,2.59-.42h10.03c1.46,0,2.72.27,3.75.8,1.03.53,1.87,1.21,2.5,2.01.63.79,1.09,1.67,1.37,2.61.29.93.44,1.81.44,2.62v7.53c0,.98-.13,1.87-.38,2.66-.25.78-.58,1.47-.99,2.08-.41.59-.9,1.1-1.44,1.53-.55.41-1.12.75-1.72,1.02-.58.26-1.19.46-1.8.59-.6.12-1.18.18-1.72.18Zm-10.03-23.11c-.74,0-1.57.13-2.45.4-.88.26-1.7.7-2.46,1.3-.74.59-1.37,1.38-1.88,2.34-.49.94-.74,2.12-.74,3.5v7.53c0,1.39.25,2.58.74,3.54.51.95,1.14,1.73,1.88,2.34.75.59,1.58,1.02,2.46,1.28.89.26,1.71.4,2.45.4h10.03c.51,0,1.06-.06,1.62-.17.58-.12,1.15-.31,1.7-.56.56-.25,1.11-.57,1.62-.96.5-.39.95-.87,1.34-1.42.38-.56.7-1.21.93-1.94.23-.74.35-1.59.35-2.51v-7.53c0-.75-.14-1.59-.42-2.47-.26-.88-.69-1.7-1.28-2.44-.59-.75-1.37-1.38-2.33-1.88-.96-.49-2.14-.74-3.52-.74h-10.03Zm-25.45,23.11h-6.06v-15.58c0-.98.13-1.87.38-2.64.25-.77.58-1.47.99-2.06.43-.6.92-1.12,1.47-1.53.54-.42,1.11-.77,1.69-1.03.6-.26,1.21-.46,1.81-.57.6-.13,1.18-.2,1.71-.2h12.8v6.06h-12.76c-.68,0-1.2.17-1.53.5-.34.32-.5.82-.5,1.47v15.58Zm-5.56-.5h5.06v-15.08c0-.79.22-1.41.65-1.83.43-.43,1.06-.65,1.88-.65h12.26v-5.06h-12.3c-.5,0-1.04.06-1.61.19-.57.11-1.14.29-1.71.54-.55.25-1.08.57-1.59.97-.51.38-.97.86-1.36,1.42-.38.55-.69,1.19-.93,1.92-.23.73-.35,1.56-.35,2.49v15.08Zm-13.11.5h-6.12v-17.55h-7.23v-6.06h7.23v-7.55h6.12v7.55h9.71v6.06h-9.71v17.55Zm-5.62-.5h5.12v-17.55h9.71v-5.06h-9.71v-7.55h-5.12v7.55h-7.23v5.06h7.23v17.55Zm-17.08.5h-10.28c-.79,0-1.66-.14-2.57-.42-.91-.28-1.77-.73-2.56-1.35-.78-.63-1.44-1.46-1.97-2.45-.53-1.02-.8-2.26-.8-3.69v-7.8c0-.79.14-1.65.42-2.55.28-.92.73-1.79,1.35-2.56.63-.79,1.46-1.46,2.45-1.99,1.01-.53,2.25-.8,3.69-.8h10.03c.79,0,1.65.14,2.55.42.92.28,1.79.74,2.56,1.37.79.62,1.46,1.44,1.99,2.45.53,1,.8,2.23.8,3.67,0,.79-.14,1.66-.42,2.57-.28.91-.74,1.77-1.37,2.56-.62.78-1.44,1.44-2.45,1.97-1,.53-2.23.8-3.67.8h-10.28v-5.78h10.28c.69,0,1.2-.2,1.57-.6.37-.42.55-.94.55-1.56,0-.66-.2-1.16-.62-1.52-.41-.38-.9-.56-1.5-.56h-10.03c-.69,0-1.2.2-1.56.62-.38.42-.56.92-.56,1.55v7.76c0,.67.2,1.18.6,1.55.42.37.94.56,1.56.56h10.24v5.8Zm-10.28-23.11c-1.35,0-2.51.25-3.45.74-.93.49-1.71,1.12-2.29,1.86-.58.73-1,1.53-1.26,2.4-.26.86-.4,1.67-.4,2.41v7.8c0,1.35.25,2.51.74,3.46.49.93,1.11,1.71,1.84,2.29.74.58,1.55,1,2.4,1.26.87.26,1.69.4,2.43.4h9.78v-4.8h-9.74c-.74,0-1.38-.23-1.9-.68-.51-.46-.77-1.11-.77-1.92v-7.76c0-.75.23-1.38.69-1.88.46-.52,1.11-.79,1.94-.79h10.03c.72,0,1.33.23,1.84.68.52.46.79,1.1.79,1.9,0,.74-.23,1.38-.68,1.9-.46.51-1.12.77-1.94.77h-9.78v4.78h9.78c1.35,0,2.5-.25,3.43-.74.95-.5,1.72-1.11,2.29-1.84.59-.74,1.02-1.55,1.28-2.4.26-.87.4-1.69.4-2.43,0-1.35-.25-2.5-.74-3.43-.49-.95-1.12-1.72-1.86-2.29-.73-.59-1.54-1.02-2.4-1.28-.85-.26-1.66-.4-2.41-.4h-10.03Zm-9.89,23.11h-9.36l-.07-.06-11.52-9.97h-4.15v-6.06h12.82c.65-.05,1.27-.19,1.81-.41.55-.23,1.03-.53,1.42-.91.4-.38.71-.83.93-1.35.21-.54.32-1.16.32-1.85v-3.51c0-.34-.05-.5-.1-.58-.06-.14-.12-.22-.2-.26-.11-.08-.19-.11-.29-.12-.12-.01-.23-.02-.34-.02h-18.1v25.1h-6.06v-28.11c0-.42.08-.82.23-1.19.15-.37.36-.7.63-.97.28-.28.61-.5.98-.66.37-.16.78-.23,1.21-.23h21.1c1.28,0,2.37.24,3.26.71.88.46,1.61,1.05,2.15,1.76.56.69.96,1.45,1.2,2.26.25.8.37,1.57.37,2.27v3.55c0,1.29-.16,2.46-.48,3.47-.32,1.02-.76,1.93-1.32,2.72-.54.77-1.17,1.44-1.89,2-.71.55-1.47,1.01-2.25,1.38-.77.35-1.57.61-2.37.77-.54.11-1.07.18-1.58.22l11.64,10.05Zm-9.17-.5h7.83l-11.61-10.03h.67c.67,0,1.38-.08,2.13-.23.76-.15,1.52-.4,2.26-.73.75-.35,1.47-.79,2.15-1.32.68-.53,1.28-1.16,1.79-1.89.52-.75.95-1.62,1.25-2.58.3-.97.46-2.09.46-3.32v-3.55c0-.66-.12-1.37-.35-2.13-.22-.75-.59-1.46-1.11-2.1-.51-.66-1.18-1.2-1.99-1.62-.82-.44-1.83-.66-3.03-.66h-21.1c-.36,0-.71.07-1.02.19-.31.13-.59.31-.82.54-.22.23-.39.5-.52.82-.13.31-.19.64-.19.99v27.61h5.06v-25.1h18.6c.12,0,.25,0,.39.02.19.02.36.09.51.2.15.08.29.25.38.47.1.17.15.44.15.8v3.51c0,.76-.12,1.44-.36,2.04-.24.59-.59,1.1-1.04,1.52-.43.42-.96.76-1.57,1.01-.59.24-1.26.39-1.98.45h-12.34v5.06h3.84l.07.06,11.52,9.97Zm106.19-5.06h-9.98c-.81,0-1.43-.22-1.87-.65s-.65-1.05-.65-1.84v-7.53c0-.79.22-1.41.65-1.83.43-.43,1.06-.65,1.86-.65h9.98c.79,0,1.41.21,1.84.63.43.42.65,1.05.65,1.89v7.48c0,.79-.21,1.41-.63,1.84-.42.43-1.05.65-1.87.65Zm-9.98-12c-.67,0-1.18.17-1.51.5-.34.32-.5.82-.5,1.47v7.53c0,.66.17,1.16.5,1.49.33.33.84.5,1.51.5h9.98c.68,0,1.19-.17,1.51-.5.32-.33.49-.84.49-1.49v-7.48c0-.7-.17-1.21-.5-1.53-.33-.32-.84-.49-1.49-.49h-9.98Z"/></svg>