<svg width="183" height="100" viewBox="0 0 183 100" fill="none" xmlns="http://www.w3.org/2000/svg">
<path d="M180.067 0H2.93283C1.31273 0 0 1.31692 0 2.94131V97.0587C0 98.6831 1.31273 100 2.93283 100H180.067C181.687 100 183 98.6831 183 97.0587V2.94131C183 1.31692 181.687 0 180.067 0ZM18.887 53.7257V78.1229C18.887 79.2057 19.7622 80.0838 20.8423 80.0838H22.2543V94.1174H12.707V53.7257H18.887ZM35.7125 53.7257V94.1174H26.1648V80.0838H27.5772C28.6573 80.0838 29.5324 79.2057 29.5324 78.1229V53.7257H35.7125ZM59.2604 53.7257V78.1229C59.2604 79.2057 60.1355 80.0838 61.2156 80.0838H62.628V94.1174H53.0807V80.0838H54.4928C55.5728 80.0838 56.448 79.2057 56.448 78.1229V53.7257H59.2604ZM76.0858 53.7257V94.1174H66.5385V80.0838H67.9509C69.031 80.0838 69.9062 79.2057 69.9062 78.1229V53.7257H76.0858ZM113.092 53.7257V78.1229C113.092 79.2057 113.967 80.0838 115.047 80.0838H116.46V94.1174H106.912V80.0838H108.324C109.404 80.0838 110.279 79.2057 110.279 78.1229V53.7257H113.092ZM129.917 53.7257V94.1174H120.37V80.0838H121.782C122.862 80.0838 123.737 79.2057 123.737 78.1229V53.7257H129.917ZM156.833 53.7257V94.1174H147.286V80.0838H148.698C149.778 80.0838 150.654 79.2057 150.654 78.1229V53.7257H156.833ZM170.291 94.1174H160.744V53.7257H170.291V94.1174ZM146.743 76.162H143.918V53.7257H146.743V76.162ZM141.963 80.0838H143.375V94.1174H133.828V53.7257H140.007V78.1229C140.007 79.2057 140.883 80.0838 141.963 80.0838ZM119.827 76.162H117.002V53.7257H119.827V76.162ZM106.369 76.162H103.545V53.7257H106.369V76.162ZM101.589 80.0838H103.001V94.1174H93.454V53.7257H99.6341V78.1229C99.6341 79.2057 100.509 80.0838 101.589 80.0838ZM89.5436 94.1174H79.9963V53.7257H89.5436V94.1174ZM65.9961 76.162H63.1708V53.7257H65.9961V76.162ZM52.5379 76.162H49.713V53.7257H52.5379V76.162ZM47.7578 80.0838H49.1703V94.1174H39.6229V53.7257H45.8026V78.1229C45.8026 79.2057 46.6778 80.0838 47.7578 80.0838ZM25.622 76.162H22.7971V53.7257H25.622V76.162ZM177.134 94.1174H174.202V51.7648C174.202 50.682 173.326 49.8039 172.246 49.8039H10.7518C9.67169 49.8039 8.79654 50.682 8.79654 51.7648V94.1174H5.86566V5.88263H177.134V94.1174Z" fill="#E42575"/>
<path d="M10.7538 46.4732H172.246C173.326 46.4732 174.202 45.5951 174.202 44.5123V10.7848C174.202 9.70202 173.326 8.82394 172.246 8.82394H10.7538C9.67374 8.82394 8.79858 9.70202 8.79858 10.7848V44.5123C8.79858 45.5951 9.67374 46.4732 10.7538 46.4732ZM12.709 12.7457H170.291V42.5514H12.709V12.7457Z" fill="#E42575"/>
<path d="M140.039 16.6674H103.399C102.319 16.6674 101.444 17.5455 101.444 18.6283V36.6688C101.444 37.7515 102.319 38.6296 103.399 38.6296H140.039C141.119 38.6296 141.994 37.7515 141.994 36.6688V18.6283C141.994 17.5451 141.119 16.6674 140.039 16.6674ZM138.084 34.7079H105.354V20.5892H138.084V34.7079Z" fill="#E42575"/>
<path d="M22.1399 21.5626H21.7489V18.6283C21.7489 17.5455 20.8737 16.6674 19.7937 16.6674C18.7136 16.6674 17.8385 17.5455 17.8385 18.6283V21.5626H17.4474C16.3673 21.5626 15.4922 22.4406 15.4922 23.5234C15.4922 24.6062 16.3673 25.4843 17.4474 25.4843H17.8385V36.6688C17.8385 37.7515 18.7136 38.6296 19.7937 38.6296C20.8737 38.6296 21.7489 37.7515 21.7489 36.6688V25.4843H22.1399C23.22 25.4843 24.0952 24.6062 24.0952 23.5234C24.0952 22.4406 23.22 21.5626 22.1399 21.5626Z" fill="#E42575"/>
<path d="M46.6458 23.4364H46.2548V18.6283C46.2548 17.5455 45.3796 16.6674 44.2995 16.6674C43.2195 16.6674 42.3443 17.5455 42.3443 18.6283V23.4364H41.9533C40.8732 23.4364 39.998 24.3144 39.998 25.3972C39.998 26.48 40.8732 27.3581 41.9533 27.3581H42.3443V36.6688C42.3443 37.7515 43.2195 38.6296 44.2995 38.6296C45.3796 38.6296 46.2548 37.7515 46.2548 36.6688V27.3581H46.6458C47.7259 27.3581 48.601 26.48 48.601 25.3972C48.601 24.3144 47.7259 23.4364 46.6458 23.4364Z" fill="#E42575"/>
<path d="M71.1509 25.3102H70.7599V18.6283C70.7599 17.5455 69.8847 16.6674 68.8047 16.6674C67.7246 16.6674 66.8494 17.5455 66.8494 18.6283V25.3102H66.4584C65.3783 25.3102 64.5032 26.1883 64.5032 27.2711C64.5032 28.3539 65.3783 29.2319 66.4584 29.2319H66.8494V36.6688C66.8494 37.7515 67.7246 38.6296 68.8047 38.6296C69.8847 38.6296 70.7599 37.7515 70.7599 36.6688V29.2319H71.1509C72.231 29.2319 73.1061 28.3539 73.1061 27.2711C73.1061 26.1883 72.231 25.3102 71.1509 25.3102Z" fill="#E42575"/>
<path d="M95.6563 30.9312H95.2652V18.6283C95.2652 17.5455 94.3901 16.6674 93.31 16.6674C92.23 16.6674 91.3548 17.5455 91.3548 18.6283V30.9312H90.9638C89.8837 30.9312 89.0085 31.8093 89.0085 32.8921C89.0085 33.9749 89.8837 34.853 90.9638 34.853H91.3548V36.6688C91.3548 37.7515 92.23 38.6296 93.31 38.6296C94.3901 38.6296 95.2652 37.7515 95.2652 36.6688V34.853H95.6563C96.7364 34.853 97.6115 33.9749 97.6115 32.8921C97.6115 31.8093 96.7364 30.9312 95.6563 30.9312Z" fill="#E42575"/>
<path d="M34.3926 27.1836H34.0016V18.6279C34.0016 17.5451 33.1264 16.6671 32.0464 16.6671C30.9663 16.6671 30.0911 17.5451 30.0911 18.6279V27.1836H29.7001C28.62 27.1836 27.7449 28.0617 27.7449 29.1445C27.7449 30.2273 28.62 31.1054 29.7001 31.1054H30.0911V36.6688C30.0911 37.7516 30.9663 38.6297 32.0464 38.6297C33.1264 38.6297 34.0016 37.7516 34.0016 36.6688V31.1054H34.3926C35.4727 31.1054 36.3478 30.2273 36.3478 29.1445C36.3478 28.0617 35.4727 27.1836 34.3926 27.1836Z" fill="#E42575"/>
<path d="M58.8982 29.0574H58.5072V18.6279C58.5072 17.5451 57.632 16.6671 56.552 16.6671C55.4719 16.6671 54.5968 17.5451 54.5968 18.6279V29.0574H54.2057C53.1256 29.0574 52.2505 29.9355 52.2505 31.0183C52.2505 32.1011 53.1256 32.9792 54.2057 32.9792H54.5968V36.6688C54.5968 37.7516 55.4719 38.6297 56.552 38.6297C57.632 38.6297 58.5072 37.7516 58.5072 36.6688V32.9792H58.8982C59.9783 32.9792 60.8535 32.1011 60.8535 31.0183C60.8535 29.9355 59.9783 29.0574 58.8982 29.0574Z" fill="#E42575"/>
<path d="M83.4036 19.6888H83.0126V18.6279C83.0126 17.5451 82.1374 16.6671 81.0573 16.6671C79.9773 16.6671 79.1021 17.5451 79.1021 18.6279V19.6888H78.7111C77.631 19.6888 76.7559 20.5668 76.7559 21.6496C76.7559 22.7324 77.631 23.6105 78.7111 23.6105H79.1021V36.6688C79.1021 37.7516 79.9773 38.6297 81.0573 38.6297C82.1374 38.6297 83.0126 37.7516 83.0126 36.6688V23.6105H83.4036C84.4837 23.6105 85.3588 22.7324 85.3588 21.6496C85.3588 20.5668 84.4837 19.6888 83.4036 19.6888Z" fill="#E42575"/>
<path d="M161.037 16.6674C158.09 16.6674 155.692 19.0718 155.692 22.0273C155.692 24.9827 158.09 27.3871 161.037 27.3871C163.983 27.3871 166.381 24.9827 166.381 22.0273C166.381 19.0715 163.983 16.6674 161.037 16.6674ZM161.037 23.465C160.246 23.465 159.603 22.8199 159.603 22.0269C159.603 21.2343 160.246 20.5888 161.037 20.5888C161.827 20.5888 162.47 21.2339 162.47 22.0269C162.47 22.8199 161.827 23.465 161.037 23.465Z" fill="#E42575"/>
<path d="M149.748 16.6674C146.802 16.6674 144.404 19.0718 144.404 22.0273C144.404 24.9827 146.802 27.3871 149.748 27.3871C152.695 27.3871 155.092 24.9827 155.092 22.0273C155.092 19.0715 152.695 16.6674 149.748 16.6674ZM149.748 23.465C148.958 23.465 148.314 22.8199 148.314 22.0269C148.314 21.2343 148.958 20.5888 149.748 20.5888C150.539 20.5888 151.182 21.2339 151.182 22.0269C151.182 22.8199 150.539 23.465 149.748 23.465Z" fill="#E42575"/>
<path d="M161.037 27.9099C158.09 27.9099 155.692 30.3144 155.692 33.2698C155.692 36.2252 158.09 38.6297 161.037 38.6297C163.983 38.6297 166.381 36.2252 166.381 33.2698C166.381 30.3144 163.983 27.9099 161.037 27.9099ZM161.037 34.7079C160.246 34.7079 159.603 34.0628 159.603 33.2698C159.603 32.4768 160.246 31.8317 161.037 31.8317C161.827 31.8317 162.47 32.4768 162.47 33.2698C162.47 34.0628 161.827 34.7079 161.037 34.7079Z" fill="#E42575"/>
<path d="M149.748 27.9099C146.802 27.9099 144.404 30.3144 144.404 33.2698C144.404 36.2252 146.802 38.6297 149.748 38.6297C152.695 38.6297 155.092 36.2252 155.092 33.2698C155.092 30.3144 152.695 27.9099 149.748 27.9099ZM149.748 34.7079C148.958 34.7079 148.314 34.0628 148.314 33.2698C148.314 32.4768 148.958 31.8317 149.748 31.8317C150.539 31.8317 151.182 32.4768 151.182 33.2698C151.182 34.0628 150.539 34.7079 149.748 34.7079Z" fill="#E42575"/>
</svg>
